<svg width="120" height="24" viewBox="0 0 120 24" fill="none" xmlns="http://www.w3.org/2000/svg">
<rect y="5" width="7" height="14" rx="3" fill="white"/>
<rect x="9" y="5" width="5" height="14" rx="2.5" fill="white"/>
<path d="M17.88 19V5H24.44C26.12 5 27.4 5.33333 28.28 6C29.16 6.65333 29.6 7.53333 29.6 8.64C29.6 9.38667 29.4267 10.0267 29.08 10.56C28.7333 11.08 28.2667 11.4867 27.68 11.78C27.1067 12.06 26.48 12.2 25.8 12.2L26.16 11.48C26.9467 11.48 27.6533 11.6267 28.28 11.92C28.9067 12.2 29.4 12.6133 29.76 13.16C30.1333 13.7067 30.32 14.3867 30.32 15.2C30.32 16.4 29.86 17.3333 28.94 18C28.02 18.6667 26.6533 19 24.84 19H17.88ZM20.48 16.96H24.68C25.6533 16.96 26.4 16.8 26.92 16.48C27.44 16.16 27.7 15.6467 27.7 14.94C27.7 14.2467 27.44 13.74 26.92 13.42C26.4 13.0867 25.6533 12.92 24.68 12.92H20.28V10.9H24.16C25.0667 10.9 25.76 10.74 26.24 10.42C26.7333 10.1 26.98 9.62 26.98 8.98C26.98 8.32667 26.7333 7.84 26.24 7.52C25.76 7.2 25.0667 7.04 24.16 7.04H20.48V16.96ZM37.6548 19.14C36.5615 19.14 35.5882 18.9067 34.7348 18.44C33.8815 17.96 33.2082 17.3067 32.7148 16.48C32.2215 15.6533 31.9748 14.7133 31.9748 13.66C31.9748 12.5933 32.2215 11.6533 32.7148 10.84C33.2082 10.0133 33.8815 9.36667 34.7348 8.9C35.5882 8.43333 36.5615 8.2 37.6548 8.2C38.7615 8.2 39.7415 8.43333 40.5948 8.9C41.4615 9.36667 42.1348 10.0067 42.6148 10.82C43.1082 11.6333 43.3548 12.58 43.3548 13.66C43.3548 14.7133 43.1082 15.6533 42.6148 16.48C42.1348 17.3067 41.4615 17.96 40.5948 18.44C39.7415 18.9067 38.7615 19.14 37.6548 19.14ZM37.6548 17C38.2682 17 38.8148 16.8667 39.2948 16.6C39.7748 16.3333 40.1482 15.9467 40.4148 15.44C40.6948 14.9333 40.8348 14.34 40.8348 13.66C40.8348 12.9667 40.6948 12.3733 40.4148 11.88C40.1482 11.3733 39.7748 10.9867 39.2948 10.72C38.8148 10.4533 38.2748 10.32 37.6748 10.32C37.0615 10.32 36.5148 10.4533 36.0348 10.72C35.5682 10.9867 35.1948 11.3733 34.9148 11.88C34.6348 12.3733 34.4948 12.9667 34.4948 13.66C34.4948 14.34 34.6348 14.9333 34.9148 15.44C35.1948 15.9467 35.5682 16.3333 36.0348 16.6C36.5148 16.8667 37.0548 17 37.6548 17ZM50.5455 19.14C49.4521 19.14 48.4788 18.9067 47.6255 18.44C46.7721 17.96 46.0988 17.3067 45.6055 16.48C45.1121 15.6533 44.8655 14.7133 44.8655 13.66C44.8655 12.5933 45.1121 11.6533 45.6055 10.84C46.0988 10.0133 46.7721 9.36667 47.6255 8.9C48.4788 8.43333 49.4521 8.2 50.5455 8.2C51.6521 8.2 52.6321 8.43333 53.4855 8.9C54.3521 9.36667 55.0255 10.0067 55.5055 10.82C55.9988 11.6333 56.2455 12.58 56.2455 13.66C56.2455 14.7133 55.9988 15.6533 55.5055 16.48C55.0255 17.3067 54.3521 17.96 53.4855 18.44C52.6321 18.9067 51.6521 19.14 50.5455 19.14ZM50.5455 17C51.1588 17 51.7055 16.8667 52.1855 16.6C52.6655 16.3333 53.0388 15.9467 53.3055 15.44C53.5855 14.9333 53.7255 14.34 53.7255 13.66C53.7255 12.9667 53.5855 12.3733 53.3055 11.88C53.0388 11.3733 52.6655 10.9867 52.1855 10.72C51.7055 10.4533 51.1655 10.32 50.5655 10.32C49.9521 10.32 49.4055 10.4533 48.9255 10.72C48.4588 10.9867 48.0855 11.3733 47.8055 11.88C47.5255 12.3733 47.3855 12.9667 47.3855 13.66C47.3855 14.34 47.5255 14.9333 47.8055 15.44C48.0855 15.9467 48.4588 16.3333 48.9255 16.6C49.4055 16.8667 49.9455 17 50.5455 17ZM60.6761 16.62L60.7361 13.48L66.3161 8.32H69.3161L64.5761 13.08L63.2561 14.18L60.6761 16.62ZM58.6361 19V4.16H61.1361V19H58.6361ZM66.6961 19L62.7961 14.18L64.3761 12.18L69.7361 19H66.6961ZM74.3189 19.14C73.4256 19.14 72.5656 19.0267 71.7389 18.8C70.9256 18.56 70.2789 18.2733 69.7989 17.94L70.7589 16.04C71.2389 16.3467 71.8122 16.6 72.4789 16.8C73.1456 17 73.8122 17.1 74.4789 17.1C75.2656 17.1 75.8322 16.9933 76.1789 16.78C76.5389 16.5667 76.7189 16.28 76.7189 15.92C76.7189 15.6267 76.5989 15.4067 76.3589 15.26C76.1189 15.1 75.8056 14.98 75.4189 14.9C75.0322 14.82 74.5989 14.7467 74.1189 14.68C73.6522 14.6133 73.1789 14.5267 72.6989 14.42C72.2322 14.3 71.8056 14.1333 71.4189 13.92C71.0322 13.6933 70.7189 13.3933 70.4789 13.02C70.2389 12.6467 70.1189 12.1533 70.1189 11.54C70.1189 10.86 70.3122 10.2733 70.6989 9.78C71.0856 9.27333 71.6256 8.88667 72.3189 8.62C73.0256 8.34 73.8589 8.2 74.8189 8.2C75.5389 8.2 76.2656 8.28 76.9989 8.44C77.7322 8.6 78.3389 8.82667 78.8189 9.12L77.8589 11.02C77.3522 10.7133 76.8389 10.5067 76.3189 10.4C75.8122 10.28 75.3056 10.22 74.7989 10.22C74.0389 10.22 73.4722 10.3333 73.0989 10.56C72.7389 10.7867 72.5589 11.0733 72.5589 11.42C72.5589 11.74 72.6789 11.98 72.9189 12.14C73.1589 12.3 73.4722 12.4267 73.8589 12.52C74.2456 12.6133 74.6722 12.6933 75.1389 12.76C75.6189 12.8133 76.0922 12.9 76.5589 13.02C77.0256 13.14 77.4522 13.3067 77.8389 13.52C78.2389 13.72 78.5589 14.0067 78.7989 14.38C79.0389 14.7533 79.1589 15.24 79.1589 15.84C79.1589 16.5067 78.9589 17.0867 78.5589 17.58C78.1722 18.0733 77.6189 18.46 76.8989 18.74C76.1789 19.0067 75.3189 19.14 74.3189 19.14ZM87.3719 8.2C88.2252 8.2 88.9852 8.36667 89.6519 8.7C90.3319 9.03333 90.8652 9.54667 91.2519 10.24C91.6385 10.92 91.8319 11.8 91.8319 12.88V19H89.3319V13.2C89.3319 12.2533 89.1052 11.5467 88.6519 11.08C88.2119 10.6133 87.5919 10.38 86.7919 10.38C86.2052 10.38 85.6852 10.5 85.2319 10.74C84.7785 10.98 84.4252 11.34 84.1719 11.82C83.9319 12.2867 83.8119 12.88 83.8119 13.6V19H81.3119V4.16H83.8119V11.2L83.2719 10.32C83.6452 9.64 84.1852 9.12 84.8919 8.76C85.6119 8.38667 86.4385 8.2 87.3719 8.2ZM100.043 19.14C98.8561 19.14 97.8161 18.9067 96.9228 18.44C96.0428 17.96 95.3561 17.3067 94.8628 16.48C94.3828 15.6533 94.1428 14.7133 94.1428 13.66C94.1428 12.5933 94.3761 11.6533 94.8428 10.84C95.3228 10.0133 95.9761 9.36667 96.8028 8.9C97.6428 8.43333 98.5961 8.2 99.6628 8.2C100.703 8.2 101.629 8.42667 102.443 8.88C103.256 9.33333 103.896 9.97333 104.363 10.8C104.829 11.6267 105.063 12.6 105.063 13.72C105.063 13.8267 105.056 13.9467 105.043 14.08C105.043 14.2133 105.036 14.34 105.023 14.46H96.1228V12.8H103.703L102.723 13.32C102.736 12.7067 102.609 12.1667 102.343 11.7C102.076 11.2333 101.709 10.8667 101.243 10.6C100.789 10.3333 100.263 10.2 99.6628 10.2C99.0495 10.2 98.5095 10.3333 98.0428 10.6C97.5895 10.8667 97.2295 11.24 96.9628 11.72C96.7095 12.1867 96.5828 12.74 96.5828 13.38V13.78C96.5828 14.42 96.7295 14.9867 97.0228 15.48C97.3161 15.9733 97.7295 16.3533 98.2628 16.62C98.7961 16.8867 99.4095 17.02 100.103 17.02C100.703 17.02 101.243 16.9267 101.723 16.74C102.203 16.5533 102.629 16.26 103.003 15.86L104.343 17.4C103.863 17.96 103.256 18.3933 102.523 18.7C101.803 18.9933 100.976 19.14 100.043 19.14ZM107.464 19V4.16H109.964V19H107.464ZM113.585 19V7.72C113.585 6.6 113.912 5.70667 114.565 5.04C115.232 4.36 116.179 4.02 117.405 4.02C117.845 4.02 118.259 4.06667 118.645 4.16C119.045 4.25333 119.379 4.4 119.645 4.6L118.965 6.48C118.779 6.33333 118.565 6.22667 118.325 6.16C118.085 6.08 117.839 6.04 117.585 6.04C117.065 6.04 116.672 6.18667 116.405 6.48C116.139 6.76 116.005 7.18667 116.005 7.76V8.96L116.085 10.08V19H113.585ZM111.825 10.4V8.4H118.945V10.4H111.825Z" fill="white"/>
<rect x="47" y="10" width="4" height="7" fill="white"/>
</svg>
