<svg width="28" height="28" viewBox="0 0 28 28" fill="none" xmlns="http://www.w3.org/2000/svg">
<circle cx="14" cy="14" r="13.25" stroke="white" stroke-width="1.5"/>
<path d="M11 12V11.5C10.7239 11.5 10.5 11.7239 10.5 12H11ZM11 20H10.5C10.5 20.2761 10.7239 20.5 11 20.5V20ZM17 20V20.5C17.2761 20.5 17.5 20.2761 17.5 20H17ZM17 12H17.5C17.5 11.7239 17.2761 11.5 17 11.5V12ZM10.5 12V20H11.5V12H10.5ZM17.5 20V12H16.5V20H17.5ZM14 11.5H11V12.5H14V11.5ZM11 20.5H14V19.5H11V20.5ZM13.5 12V20H14.5V12H13.5ZM17 11.5H15.2857V12.5H17V11.5ZM15.2857 11.5H14V12.5H15.2857V11.5ZM17 19.5H14V20.5H17V19.5Z" fill="white"/>
<path d="M17 10H11V8.4H13.1429L13.5714 8H14.4286L14.8571 8.4H17V9.2V10Z" stroke="white" stroke-linecap="round" stroke-linejoin="round"/>
</svg>
